<svg width="35" height="35" viewBox="0 0 35 35" fill="none" xmlns="http://www.w3.org/2000/svg">
<g id="ic:round-mail">
<path id="Vector" d="M29.1667 5.8335H5.83341C4.22925 5.8335 2.91675 7.146 2.91675 8.75016V26.2502C2.91675 27.8543 4.22925 29.1668 5.83341 29.1668H29.1667C30.7709 29.1668 32.0834 27.8543 32.0834 26.2502V8.75016C32.0834 7.146 30.7709 5.8335 29.1667 5.8335ZM28.5834 12.0314L19.0459 17.996C18.098 18.5939 16.9022 18.5939 15.9542 17.996L6.41675 12.0314C6.27052 11.9493 6.14246 11.8384 6.04034 11.7054C5.93821 11.5724 5.86413 11.42 5.82259 11.2576C5.78104 11.0951 5.7729 10.9259 5.79864 10.7602C5.82439 10.5945 5.88349 10.4357 5.97237 10.2935C6.06125 10.1513 6.17805 10.0286 6.31572 9.93286C6.45339 9.83711 6.60906 9.77028 6.7733 9.73643C6.93755 9.70258 7.10695 9.70241 7.27127 9.73592C7.43558 9.76944 7.59138 9.83594 7.72925 9.93141L17.5001 16.0418L27.2709 9.93141C27.4088 9.83594 27.5646 9.76944 27.7289 9.73592C27.8932 9.70241 28.0626 9.70258 28.2269 9.73643C28.3911 9.77028 28.5468 9.83711 28.6844 9.93286C28.8221 10.0286 28.9389 10.1513 29.0278 10.2935C29.1167 10.4357 29.1758 10.5945 29.2015 10.7602C29.2273 10.9259 29.2191 11.0951 29.1776 11.2576C29.136 11.42 29.062 11.5724 28.9598 11.7054C28.8577 11.8384 28.7296 11.9493 28.5834 12.0314Z" fill="#9225FF"/>
</g>
</svg>
