<svg width="26" height="26" viewBox="0 0 26 26" fill="none" xmlns="http://www.w3.org/2000/svg">
<g opacity="0.7">
<path d="M13 3.25C7.62369 3.25 3.25 7.62369 3.25 13C3.25 18.3763 7.62369 22.75 13 22.75C18.3763 22.75 22.75 18.3763 22.75 13C22.75 7.62369 18.3763 3.25 13 3.25ZM13 4.875C17.4972 4.875 21.125 8.50281 21.125 13C21.125 17.4972 17.4972 21.125 13 21.125C8.50281 21.125 4.875 17.4972 4.875 13C4.875 8.50281 8.50281 4.875 13 4.875ZM9.34375 9.75C9.02052 9.75 8.71052 9.8784 8.48196 10.107C8.2534 10.3355 8.125 10.6455 8.125 10.9688C8.125 11.292 8.2534 11.602 8.48196 11.8305C8.71052 12.0591 9.02052 12.1875 9.34375 12.1875C9.66698 12.1875 9.97698 12.0591 10.2055 11.8305C10.4341 11.602 10.5625 11.292 10.5625 10.9688C10.5625 10.6455 10.4341 10.3355 10.2055 10.107C9.97698 9.8784 9.66698 9.75 9.34375 9.75ZM16.6562 9.75C16.333 9.75 16.023 9.8784 15.7945 10.107C15.5659 10.3355 15.4375 10.6455 15.4375 10.9688C15.4375 11.292 15.5659 11.602 15.7945 11.8305C16.023 12.0591 16.333 12.1875 16.6562 12.1875C16.9795 12.1875 17.2895 12.0591 17.518 11.8305C17.7466 11.602 17.875 11.292 17.875 10.9688C17.875 10.6455 17.7466 10.3355 17.518 10.107C17.2895 9.8784 16.9795 9.75 16.6562 9.75ZM8.78475 15.4375L7.38888 16.25C8.51256 18.1894 10.6007 19.5 13 19.5C15.3993 19.5 17.4874 18.1894 18.6111 16.25L17.2153 15.4375C16.7894 16.1789 16.1754 16.7947 15.4352 17.2227C14.695 17.6507 13.855 17.8757 13 17.875C12.145 17.8757 11.305 17.6507 10.5648 17.2227C9.82465 16.7947 9.2106 16.1789 8.78475 15.4375Z" fill="black"/>
</g>
</svg>
